<svg xmlns="http://www.w3.org/2000/svg" viewBox="0 0 32 32" shape-rendering="crispEdges">
  <!-- Background (Optional: can remove this rect for transparency) -->
  <rect width="32" height="32" fill="none" />
  
  <!-- Shadow/Border Black -->
  <path fill="#000000" d="
    M5 4h8v2h-2v2h-2v2h2v4h-2v4h2v4h-4v-4h2v-2h-2v-4h2v-2h2v-2h-4v-2h-2v-2z
    M11 24h4v4h-4z
    M19 4h4v16h-4z
    M19 24h4v4h-4z
  " transform="translate(1, 1)" opacity="0.3"/>

  <!-- Pixelated ? -->
  <path fill="#F4D03F" d="
    M4 4h8v2h-2v2h-2v2h2v4h-2v4h2v4h-4v-4h2v-2h-2v-4h2v-2h2v-2h-4v-2h-2v-2z
    M10 24h4v4h-4z
  " />

  <!-- Pixelated ! -->
  <path fill="#F4D03F" d="
    M20 4h4v16h-4z
    M20 24h4v4h-4z
  " />
</svg>