<svg xmlns="http://www.w3.org/2000/svg" viewBox="0 0 32 32" shape-rendering="crispEdges">
  <!-- Yellow ? -->
  <path fill="#F4D03F" d="
    M6 6h6v2h-2v2h-2v2h2v4h-2v4h2v2h-2v2h-2v-4h2v-2h-2v-2h2v-2h2v-2h-4v-2z
    M10 24h2v2h-2z
  " />

  <!-- Yellow ! -->
  <path fill="#F4D03F" d="
    M20 6h2v12h-2z
    M20 24h2v2h-2z
  " />
  
  <!-- Subtle black outline for contrast on light tabs -->
  <path fill="#000000" fill-opacity="0.2" d="
    M12 8h2v2h-2z M10 12h2v2h-2z M12 16h2v4h-2z M12 26h2v2h-2z
    M22 6h2v12h-2z M22 24h2v2h-2z
  " transform="translate(1,1)" />
</svg>