<svg xmlns="http://www.w3.org/2000/svg" viewBox="0 0 32 32" shape-rendering="crispEdges">
  <!-- Prawn Body Base -->
  <path fill="#FF6F61" d="M12 8h8v2h2v4h-2v2h-2v2h-2v2h2v2h2v2h-4v-2h-2v-4h2v-2h2v-2h-2v-2h-4v-2h2v-2z" />
  
  <!-- Outline/Details -->
  <path fill="#000000" d="M12 8h-2v2h-2v2h2v-2h2v-2zm8 0h2v2h2v4h-2v2h-2v2h-2v2h2v2h-2v2h-2v-2h2v-2h2v-2h2v-4h-2v-2h-2v-2zm-6 4h2v2h-2v-2zm4 0h2v2h-2v-2z" />

  <!-- Antennae -->
  <path fill="#000000" d="M22 8h2v-2h2v-2h-2v2h-2v2zm-2 2h2v-2h2v-2h-2v2h-2v2z" opacity="0.6"/>
  
  <!-- Eye -->
  <rect x="18" y="10" width="2" height="2" fill="black" />
</svg>